<svg id="Capa_1" enable-background="new 0 0 605.652 605.652" height="200px" viewBox="0 0 605.652 605.652" width="200px" xmlns="http://www.w3.org/2000/svg"><g><g id="Page-1_46_"><g id="_x30_47---Civil-Engineering" transform="translate(-1 -1)"><path id="Shape_201_" d="m581.526 250.867-32.109-5.259c-6.17-26.24-16.575-51.299-30.807-74.191l18.997-26.507c7.463-10.205 7.24-24.126-.545-34.088-5.969-7.393-12.373-14.424-19.179-21.056-6.739-6.821-13.835-13.28-21.258-19.35-9.93-7.649-23.724-7.806-33.825-.384l-26.557 19.017c-22.892-14.232-47.951-24.637-74.191-30.807l-5.269-32.139c-1.952-12.471-11.956-22.124-24.488-23.63-19.01-1.963-38.172-1.963-57.183 0-12.438 1.607-22.315 11.245-24.226 23.64l-5.279 32.129c-26.24 6.17-51.299 16.575-74.191 30.807l-26.507-18.997c-10.205-7.463-24.126-7.24-34.088.545-7.306 5.98-14.294 12.338-20.935 19.047-6.877 6.702-13.346 13.811-19.37 21.288-7.697 9.947-7.894 23.783-.485 33.946l19.017 26.537c-14.232 22.892-24.637 47.951-30.807 74.191l-32.139 5.269c-12.387 1.988-21.971 11.918-23.519 24.367-2.106 19.023-2.106 38.22 0 57.243.565 4.475 2.215 8.744 4.805 12.436-7.779 10.429-8.399 24.551-1.565 35.622 4.328 6.962 11.316 11.849 19.34 13.526 2.017.406 4.07.609 6.127.606 5.886.01 11.639-1.748 16.514-5.047l13.768-9.145v195.887c0 16.724 13.558 30.282 30.282 30.282h423.95c16.724 0 30.282-13.558 30.282-30.282v-195.895l13.677 9.085c6.59 4.536 14.749 6.177 22.58 4.542 8.064-1.677 15.093-6.574 19.461-13.556l.061-.101c6.796-11.062 6.156-25.151-1.615-35.551 2.606-3.716 4.263-8.013 4.825-12.517 2.099-18.996 2.099-38.166 0-57.163-1.578-12.442-11.166-22.355-23.549-24.347zm-558.867 26.638c.504-3.483 3.248-6.214 6.733-6.702l38.852-6.359c4.131-.677 7.416-3.833 8.257-7.934 5.867-28.492 17.125-55.599 33.169-79.864 2.299-3.492 2.206-8.04-.232-11.437l-23.025-32.129c-2.114-2.803-2.175-6.65-.151-9.519 5.533-6.854 11.469-13.372 17.776-19.522 6.129-6.183 12.563-12.055 19.28-17.594 2.892-2.204 6.9-2.204 9.791 0l32.099 23.004c3.396 2.438 7.944 2.531 11.437.232 24.265-16.044 51.373-27.302 79.864-33.169 4.101-.841 7.257-4.126 7.934-8.257l6.349-38.832c.456-3.487 3.134-6.267 6.602-6.854 17.498-1.787 35.132-1.787 52.63 0 3.549.516 6.333 3.312 6.834 6.864l6.359 38.852c.677 4.131 3.833 7.416 7.934 8.257 28.489 5.854 55.596 17.099 79.864 33.129 3.492 2.299 8.04 2.206 11.437-.232l32.129-23.025c2.783-2.17 6.668-2.232 9.519-.151 6.85 5.625 13.406 11.599 19.643 17.897 6.231 6.08 12.099 12.521 17.574 19.29 2.092 2.891 2.055 6.808-.091 9.66l-23.004 32.099c-2.438 3.396-2.531 7.944-.232 11.437 16.044 24.265 27.302 51.373 33.169 79.864.841 4.101 4.126 7.257 8.257 7.934l38.832 6.349c3.496.489 6.248 3.229 6.753 6.723 1.945 17.469 1.945 35.101 0 52.57-.154.709-.416 1.39-.777 2.019l-80.298-53.135c-12.435-101.067-98.28-176.997-200.11-176.997s-187.674 75.93-200.11 176.997l-80.288 53.125c-.349-.593-.605-1.237-.757-1.908-1.951-17.493-1.951-35.148 0-52.641v-.041zm458.199-13.859-160.414-106.179c-10.012-6.784-23.147-6.784-33.159 0l-160.566 106.24c18.681-82.764 92.2-141.548 177.046-141.563 84.845-.015 158.384 58.745 177.093 141.502zm-328.44 322.818v-141.317c0-5.575 4.519-10.094 10.094-10.094h80.752c5.575 0 10.094 4.519 10.094 10.094v141.317zm373.48-10.094c0 5.575-4.519 10.094-10.094 10.094h-242.257v-141.317c0-16.724-13.558-30.282-30.282-30.282h-80.752c-16.724 0-30.282 13.558-30.282 30.282v141.317h-40.378c-5.575 0-10.094-4.519-10.094-10.094v-209.23l222.069-146.798 222.07 146.788zm58.869-206.625c-1.454 2.335-3.798 3.976-6.49 4.542-2.531.514-5.161-.041-7.268-1.534l-261.608-172.891c-3.373-2.203-7.73-2.203-11.103 0l-261.75 172.961c-2.113 1.461-4.735 1.987-7.248 1.454-2.652-.554-4.959-2.175-6.379-4.482-3.196-4.985-1.952-11.597 2.836-15.081l272.752-180.472c1.569-1.066 3.423-1.635 5.32-1.635 1.935.008 3.822.595 5.421 1.686l272.57 180.371c4.826 3.45 6.119 10.068 2.947 15.081z"/><path id="Shape_200_" d="m243.264 334.113c0 33.449 27.116 60.564 60.564 60.564s60.564-27.116 60.564-60.564-27.116-60.564-60.564-60.564c-33.434.033-60.53 27.129-60.564 60.564zm100.941 0c0 22.299-18.077 40.376-40.376 40.376s-40.376-18.077-40.376-40.376 18.077-40.376 40.376-40.376 40.376 18.077 40.376 40.376z"/><circle id="Oval_20_" cx="182.7" cy="505.712" r="10.094"/><path id="Shape_199_" d="m313.923 445.147v60.564c0 16.724 13.558 30.282 30.282 30.282h100.941c16.724 0 30.282-13.558 30.282-30.282v-60.564c0-16.724-13.558-30.282-30.282-30.282h-100.941c-16.724 0-30.282 13.558-30.282 30.282zm141.317 0v60.564c0 5.575-4.519 10.094-10.094 10.094h-100.941c-5.575 0-10.094-4.519-10.094-10.094v-60.564c0-5.575 4.519-10.094 10.094-10.094h100.941c5.574 0 10.094 4.52 10.094 10.094z"/></g></g></g></svg>